<?xml version="1.0" encoding="UTF-8"?>
<svg id="Camada_1" xmlns="http://www.w3.org/2000/svg" version="1.1" viewBox="0 0 370.5 218.1">
  <!-- Generator: Adobe Illustrator 30.3.0, SVG Export Plug-In . SVG Version: 2.1.3 Build 182)  -->
  <defs>
    <style>
      .st0 {
        fill: #fff;
      }

      .st1 {
        fill: #4d4d4f;
      }
    </style>
  </defs>
  <path class="st1" d="M2.1,0v196.9c0,10.5,8.5,19.1,19.1,19.1h328.1c10.5,0,19.1-8.5,19.1-19.1V0H2.1Z"/>
  <g>
    <g>
      <path class="st0" d="M138.7,175.8c-.3-.5-.7-.9-1.3-1.2-.6-.3-1.2-.5-1.9-.5s-1.4.1-2,.4c-.6.3-1.1.6-1.5,1.1-.4.4-.7,1-1,1.6s-.3,1.3-.3,2,.1,1.4.3,2c.2.6.5,1.1.9,1.6.4.4.9.8,1.5,1.1.6.3,1.2.4,2,.4s1.5-.1,2-.4c.5-.3,1-.7,1.4-1.2l1.4,1c-.5.7-1.2,1.2-1.9,1.6-.8.4-1.7.6-2.8.6s-1.9-.2-2.7-.5c-.8-.3-1.5-.8-2.1-1.4-.6-.6-1-1.3-1.3-2.1-.3-.8-.5-1.7-.5-2.6s.2-1.8.5-2.6c.3-.8.8-1.5,1.3-2.1.6-.6,1.3-1,2.1-1.4.8-.3,1.7-.5,2.7-.5s1.7.2,2.5.5c.9.4,1.6.9,2.1,1.6l-1.4,1Z"/>
      <path class="st0" d="M161.9,179.2c0,.9-.2,1.8-.5,2.6-.3.8-.8,1.5-1.4,2.1-.6.6-1.3,1-2.1,1.4s-1.7.5-2.7.5-1.8-.2-2.7-.5c-.8-.3-1.5-.8-2.1-1.4-.6-.6-1-1.3-1.4-2.1-.3-.8-.5-1.7-.5-2.6s.2-1.8.5-2.6c.3-.8.8-1.5,1.4-2.1.6-.6,1.3-1,2.1-1.4.8-.3,1.7-.5,2.7-.5s1.9.2,2.7.5,1.5.8,2.1,1.4c.6.6,1,1.3,1.4,2.1.3.8.5,1.7.5,2.6ZM160,179.2c0-.7-.1-1.3-.3-1.9-.2-.6-.5-1.1-.9-1.6-.4-.4-.9-.8-1.5-1.1-.6-.3-1.2-.4-2-.4s-1.4.1-1.9.4-1.1.6-1.5,1.1c-.4.4-.7,1-.9,1.6s-.3,1.3-.3,1.9.1,1.3.3,1.9.5,1.1.9,1.6c.4.4.9.8,1.5,1.1s1.2.4,1.9.4,1.4-.1,2-.4c.6-.3,1.1-.6,1.5-1.1.4-.4.7-1,.9-1.6.2-.6.3-1.3.3-1.9Z"/>
      <path class="st0" d="M174.1,173c0,.3,0,.7,0,1.1s0,.7,0,1h0c.4-.7.9-1.3,1.7-1.8s1.6-.7,2.5-.7c1.6,0,2.8.5,3.5,1.4.8.9,1.2,2.2,1.2,3.7v7.6h-1.8v-6.8c0-.6,0-1.2-.2-1.8-.1-.5-.3-1-.5-1.4-.3-.4-.6-.7-1-.9-.4-.2-1-.3-1.6-.3s-.9,0-1.4.3-.9.5-1.2.9c-.4.4-.6.9-.8,1.5-.2.6-.3,1.3-.3,2.2v6.3h-1.8v-9.6c0-.3,0-.8,0-1.3,0-.5,0-1,0-1.4h1.7Z"/>
      <path class="st0" d="M201.1,175.9c-.3-.5-.7-.9-1.2-1.3s-1.2-.5-1.8-.5-.6,0-1,.1c-.3,0-.6.2-.8.3-.2.2-.4.4-.6.6-.2.2-.2.5-.2.9,0,.6.2,1,.7,1.3s1.2.6,2.3.8c1.5.3,2.5.7,3.2,1.3.7.6,1,1.3,1,2.3s-.1,1.3-.4,1.8c-.3.5-.6.9-1.1,1.2-.4.3-.9.5-1.5.7s-1.1.2-1.7.2c-.9,0-1.8-.2-2.7-.6s-1.6-1-2.2-1.8l1.4-1.1c.3.5.8,1,1.4,1.4s1.3.6,2,.6.8,0,1.1-.1.7-.2.9-.4c.3-.2.5-.4.6-.7.2-.3.2-.6.2-1,0-.7-.3-1.1-.9-1.5-.6-.3-1.5-.6-2.7-.9-.4,0-.8-.2-1.2-.3s-.8-.3-1.2-.6-.6-.6-.9-1-.3-.9-.3-1.5.1-1.2.4-1.6c.2-.4.6-.8,1-1.1.4-.3.9-.5,1.4-.6.5-.1,1.1-.2,1.6-.2.9,0,1.7.2,2.5.6.8.4,1.4.9,1.8,1.6l-1.4,1Z"/>
      <path class="st0" d="M218.4,174.5h-3.5v7.2c0,.5,0,.8.1,1.1,0,.3.2.5.4.7.2.2.4.3.6.3s.5,0,.7,0,.5,0,.8-.1.5-.2.8-.3v1.6c-.2.1-.6.2-.9.3-.3,0-.7,0-1.1,0s-.7,0-1.1-.1-.7-.3-1-.5c-.3-.2-.6-.6-.8-1-.2-.4-.3-1-.3-1.7v-7.7h-2.6v-1.5h2.6v-3.5h1.8v3.5h3.5v1.5Z"/>
      <path class="st0" d="M227.9,174.4c0-.5,0-1,0-1.4h1.7c0,.3,0,.7,0,1.1s0,.7,0,1h0c.4-.7.9-1.3,1.6-1.8.7-.4,1.5-.7,2.4-.7s.4,0,.6,0c.2,0,.4,0,.6.1l-.2,1.7c-.1,0-.3,0-.5-.1-.2,0-.5,0-.7,0-.5,0-.9,0-1.4.3-.4.2-.8.5-1.2.8s-.6.9-.8,1.4c-.2.6-.3,1.3-.3,2.1v6.3h-1.8v-9.6c0-.3,0-.8,0-1.3Z"/>
      <path class="st0" d="M253.1,185.3c0-.3,0-.7,0-1.1,0-.4,0-.7,0-1h0c-.4.7-.9,1.3-1.7,1.8s-1.6.7-2.5.7c-1.6,0-2.8-.5-3.5-1.4s-1.2-2.2-1.2-3.7v-7.6h1.8v6.8c0,.7,0,1.2.2,1.8s.3,1,.5,1.4c.3.4.6.7,1,.9.4.2,1,.3,1.6.3s.9,0,1.4-.3c.5-.2.9-.5,1.2-.9.4-.4.6-.9.8-1.5.2-.6.3-1.3.3-2.2v-6.3h1.8v9.6c0,.3,0,.8,0,1.3,0,.5,0,1,0,1.4h-1.7Z"/>
      <path class="st0" d="M271.7,174.5h-3.5v7.2c0,.5,0,.8.1,1.1,0,.3.2.5.4.7s.4.3.6.3c.2,0,.5,0,.7,0s.5,0,.8-.1c.3,0,.5-.2.8-.3v1.6c-.2.1-.6.2-.9.3-.3,0-.7,0-1.1,0s-.7,0-1.1-.1c-.4,0-.7-.3-1-.5-.3-.2-.6-.6-.8-1-.2-.4-.3-1-.3-1.7v-7.7h-2.6v-1.5h2.6v-3.5h1.8v3.5h3.5v1.5Z"/>
      <path class="st0" d="M293.4,179.2c0,.9-.2,1.8-.5,2.6-.3.8-.8,1.5-1.4,2.1-.6.6-1.3,1-2.1,1.4-.8.3-1.7.5-2.7.5s-1.8-.2-2.7-.5c-.8-.3-1.5-.8-2.1-1.4-.6-.6-1-1.3-1.4-2.1-.3-.8-.5-1.7-.5-2.6s.2-1.8.5-2.6c.3-.8.8-1.5,1.4-2.1.6-.6,1.3-1,2.1-1.4.8-.3,1.7-.5,2.7-.5s1.9.2,2.7.5c.8.3,1.5.8,2.1,1.4.6.6,1,1.3,1.4,2.1.3.8.5,1.7.5,2.6ZM291.5,179.2c0-.7-.1-1.3-.3-1.9-.2-.6-.5-1.1-.9-1.6-.4-.4-.9-.8-1.5-1.1s-1.2-.4-2-.4-1.4.1-1.9.4c-.6.3-1.1.6-1.5,1.1-.4.4-.7,1-.9,1.6-.2.6-.3,1.3-.3,1.9s.1,1.3.3,1.9c.2.6.5,1.1.9,1.6.4.4.9.8,1.5,1.1.6.3,1.2.4,1.9.4s1.4-.1,2-.4,1.1-.6,1.5-1.1.7-1,.9-1.6c.2-.6.3-1.3.3-1.9Z"/>
      <path class="st0" d="M303.9,174.4c0-.5,0-1,0-1.4h1.7c0,.3,0,.7,0,1.1,0,.4,0,.7,0,1h0c.4-.7.9-1.3,1.6-1.8.7-.4,1.5-.7,2.4-.7s.4,0,.6,0c.2,0,.4,0,.6.1l-.2,1.7c-.1,0-.3,0-.5-.1-.2,0-.5,0-.7,0-.5,0-.9,0-1.4.3s-.8.5-1.2.8c-.3.4-.6.9-.8,1.4-.2.6-.3,1.3-.3,2.1v6.3h-1.8v-9.6c0-.3,0-.8,0-1.3Z"/>
      <path class="st0" d="M327.6,177.4c0-1.1-.3-1.9-.8-2.4s-1.4-.8-2.5-.8-1.4.1-2.1.4c-.6.3-1.2.6-1.6,1.1l-1-1.2c.5-.5,1.2-.9,2-1.3.8-.3,1.8-.5,2.8-.5s1.3,0,1.9.3c.6.2,1.1.5,1.5.8.4.4.8.8,1,1.4.2.6.4,1.2.4,2v5.4c0,.5,0,1,0,1.5,0,.5,0,.9.2,1.3h-1.6c0-.3,0-.6-.1-1,0-.4,0-.7,0-1h0c-.6.8-1.2,1.4-1.9,1.8-.7.4-1.6.5-2.6.5s-1,0-1.5-.2c-.5-.1-1-.3-1.4-.6-.4-.3-.8-.7-1-1.2-.3-.5-.4-1.1-.4-1.7s.2-1.7.7-2.3c.5-.6,1.1-1,1.9-1.2s1.7-.5,2.8-.5c1.1,0,2.1-.1,3.3-.1v-.4ZM327.1,179.2c-.7,0-1.5,0-2.2,0-.8,0-1.4.2-2,.4-.6.2-1.1.5-1.5.8-.4.4-.6.8-.6,1.4s0,.8.3,1.1.4.5.7.7c.3.2.6.3.9.4.3,0,.7.1,1,.1.6,0,1.2-.1,1.7-.3s.9-.5,1.2-.9c.3-.4.6-.8.8-1.3.2-.5.3-1,.3-1.6v-.9h-.5Z"/>
    </g>
    <g>
      <path class="st0" d="M78.2,84.4c-22.9,0-41.5,19.9-41.5,44.5s13.4,38.3,31.4,43.2v-15.3c-10.4-4.3-17.8-15.2-17.8-27.9s12.5-29.9,27.9-29.9,27.9,13.4,27.9,29.9-7.2,23.3-17.5,27.8v15.4c17.9-4.9,31.1-22.4,31.1-43.1s-18.6-44.5-41.5-44.5Z"/>
      <rect class="st0" x="73.3" y="127.2" width="9.5" height="58.7"/>
      <g>
        <path class="st0" d="M158,140.8c0,3.8-1.4,7-4.2,9.4-2.8,2.4-6.4,3.7-10.7,3.7s-8.2-1.1-11-3.4c-2.8-2.3-4.2-5.2-4.2-8.8v-23.6h6.5v20.6c0,2.7.8,5.1,2.3,7.1,1.5,2.1,3.5,3.1,6.1,3.1.4,0,.7,0,.9,0,2.1-.3,3.9-1.2,5.5-2.7,1.5-1.5,2.3-3.3,2.3-5.3v-22.6h6.5v22.9Z"/>
        <path class="st0" d="M206,152.9h-5.7v-6.9c-1.3,2.4-3.2,4.3-5.7,5.7-2.6,1.4-5.3,2.1-8.1,2.1-4.9,0-9-1.9-12.3-5.8-3.1-3.6-4.6-7.9-4.6-12.9s1.6-8.7,4.8-12.4c3.4-3.9,7.5-5.8,12.2-5.8s5.3.6,7.6,1.9c2.3,1.3,4.3,3.2,5.9,5.6v-6.5h5.9v34.9ZM199.8,135.7c0-3.6-1-6.6-3-9-2.2-2.7-5.2-4.1-8.9-4.1s-6.2,1.4-8.6,4.1c-2.4,2.7-3.6,5.8-3.6,9.2s1.1,6.3,3.4,8.8c2.2,2.5,5.2,3.8,8.8,3.8s6.9-1.4,9-4.1c1.9-2.4,2.9-5.3,2.9-8.7Z"/>
        <path class="st0" d="M234,123.1h-6.3v29.7h-6.1v-29.7h-5.5v-4.8h5.5v-14h6.1v14h6.3v4.8Z"/>
        <path class="st0" d="M257,123.1h-6.3v29.7h-6.1v-29.7h-5.5v-4.8h5.5v-14h6.1v14h6.3v4.8Z"/>
        <path class="st0" d="M289.5,119.4l-3.7,5c-1.4-1.3-2.8-1.9-4-1.9-2,0-3.9,1.2-5.8,3.5-1.9,2.3-2.9,4.3-2.9,5.8v21h-6.1v-34.7h5.7v8.1c.7-2.5,2.1-4.7,4-6.6,2-1.9,4.2-2.8,6.6-2.8s4,.8,6.2,2.5Z"/>
        <path class="st0" d="M333.8,135.7c0,5.1-1.8,9.4-5.5,12.9-3.7,3.6-8.2,5.4-13.4,5.4s-9.7-1.8-13.4-5.4c-3.7-3.6-5.6-7.9-5.6-13s1.8-9.6,5.5-13.3c3.6-3.7,8-5.5,13.2-5.5s9.8,1.8,13.6,5.5c3.8,3.7,5.7,8.1,5.7,13.4ZM328.1,135.7c0-3.7-1.2-6.8-3.7-9.4-2.5-2.6-5.6-3.8-9.1-3.8s-6.8,1.2-9.3,3.7c-2.6,2.5-3.9,5.5-3.9,9.1s1.3,6.7,3.8,9.3c2.5,2.6,5.6,3.9,9.1,3.9s6.7-1.2,9.3-3.7c2.6-2.5,3.9-5.5,3.9-9Z"/>
      </g>
    </g>
  </g>
</svg>